# xmcd
#
# Track frame offsets:
#	150
#	13230
#	26394
#	42432
#	58875
#	72075
#	87347
#	115997
#	130082
#	145957
#	159097
#
# Disc length: 2322 seconds
#
# Revision: 1
# Processed by: cddbd v1.5.2PL0 Copyright (c) Steve Scherf et al.
# Submitted via: audiograbber 1.83.01
#
DISCID=9209100b
DTITLE=Los Humildes - Por Dentro Y Por Fuera
DYEAR=1992
DGENRE=
TTITLE0=Besos Y Copas
TTITLE1=Para No Pensar En Ti
TTITLE2=Ojos De Yerbabuena
TTITLE3=Pidiendo Paso
TTITLE4=Vestida De Novia
TTITLE5=Te Quiero Y Te odio
TTITLE6=Rincon Bohemio  (popurri): Yo Y Tu Recuerdo/Ella/Cuando
TTITLE7=Busco A Esa Mujer
TTITLE8=Por Dentro Y Por Fuera
TTITLE9=Por Dios Que Te Amo
TTITLE10=Con Hilo Azul
EXTD=
EXTT0=
EXTT1=
EXTT2=
EXTT3=
EXTT4=
EXTT5=
EXTT6=
EXTT7=
EXTT8=
EXTT9=
EXTT10=
PLAYORDER=
